# xmcd
#
# Track frame offsets:
#	150
#	18300
#	34287
#	54267
#	73002
#	92480
#	110625
#	130225
#	146892
#	163680
#	179400
#	196575
#	212985
#	229785
#	246022
#	264805
#	284350
#	304350
#	324622
#	341247
#
# Disc length: 4794
#
# Revision: 1
# Processed by: cddbd v1.5.1PL0 Copyright (c) Steve Scherf et al.
# Submitted via: ExactAudioCopy v0.90b3
# Normalized: r0:DSETVAR1,TDELIM( - )
#
DISCID=2c12b814
DTITLE=Various Artist - Only You... 20 Heartbreaker
DYEAR=1900
DGENRE=Ballad
TTITLE0=Hot Chocolate - It Started With A Kiss
TTITLE1=Modern Talking - You're My Heart, You're My Soul
TTITLE2=Climie Fisher - Love Changes (Everything)
TTITLE3=Keely Hawkes - World Without Your Love
TTITLE4=Joshua Kadison - Jessie
TTITLE5=La Bouche - Be My Lover
TTITLE6=Maggie Reilly - Follow The Midnight Sun
TTITLE7=Portrait - How Deep Is Your Love
TTITLE8=Bell Book and Candle - Read The Sign
TTITLE9=Touché - I'll Give You My Heart
TTITLE10=K.C. and The Sunshine Band - Please Don't Go
TTITLE11=C.C. Catch - I Can Lose My Heart Tonight
TTITLE12=Chris Norman - No Arms Can Ever Hold You
TTITLE13=Malaya - Tell Me Why (Lover Why)
TTITLE14=Limahl - Love In Your Eyes
TTITLE15=John Waite - Missing You
TTITLE16=Another Level - From The Heart
TTITLE17=Don Johnson - Tell It Like It Is
TTITLE18=Jennifer Rush - You're My One And Only
TTITLE19=Wilson Phillips - You're In Love
EXTD=
EXTT0=
EXTT1=
EXTT2=
EXTT3=
EXTT4=
EXTT5=
EXTT6=
EXTT7=
EXTT8=
EXTT9=
EXTT10=
EXTT11=
EXTT12=
EXTT13=
EXTT14=
EXTT15=
EXTT16=
EXTT17=
EXTT18=
EXTT19=
PLAYORDER=
